<svg width="154" height="166" viewBox="0 0 154 166" fill="none" xmlns="http://www.w3.org/2000/svg">
<circle cx="74.5" cy="91.5" r="74.5" fill="#BF4E62" fill-opacity="0.5"/>
<circle cx="142.5" cy="50.5" r="11.5" fill="white"/>
<path d="M134.686 72.5135C100.544 40.9344 47.4429 40.9459 13.3142 72.5135C12.0308 73.7006 12.0057 75.7105 13.2468 76.9419L19.8451 83.4883C21.0283 84.6638 22.9323 84.6888 24.1618 83.5615C52.2818 57.8002 95.7144 57.7944 123.84 83.5615C125.07 84.6888 126.974 84.6618 128.157 83.4883L134.755 76.9419C135.994 75.7105 135.969 73.7006 134.686 72.5135ZM74 110.5C67.1878 110.5 61.6667 116.021 61.6667 122.834C61.6667 129.646 67.1878 135.167 74 135.167C80.8123 135.167 86.3334 129.646 86.3334 122.834C86.3334 116.021 80.8123 110.5 74 110.5ZM113.056 94.3917C90.8447 74.7489 57.1303 74.7701 34.9438 94.3917C33.6141 95.5672 33.5717 97.608 34.834 98.8529L41.4708 105.403C42.6271 106.544 44.4887 106.621 45.7201 105.557C61.8979 91.5724 86.1387 91.6032 102.278 105.557C103.509 106.621 105.371 106.546 106.527 105.403L113.164 98.8529C114.428 97.608 114.384 95.5653 113.056 94.3917Z" fill="#8E3D57"/>
<path d="M152 50.625C152 55.7944 147.738 60 142.5 60C137.262 60 133 55.7944 133 50.625C133 45.4556 137.262 41.25 142.5 41.25C147.738 41.25 152 45.4556 152 50.625ZM134.1 2.95301L135.715 34.828C135.791 36.3248 137.042 37.5 138.561 37.5H146.439C147.958 37.5 149.209 36.3248 149.285 34.828L150.9 2.95301C150.982 1.34648 149.684 0 148.054 0H136.946C135.316 0 134.018 1.34648 134.1 2.95301Z" fill="#8E3D57" fill-opacity="0.8"/>
</svg>
