<svg width="292" height="292" viewBox="0 0 292 292" fill="none" xmlns="http://www.w3.org/2000/svg">
<path d="M145.633 98.0089C136.683 92.0059 130.779 86.0029 118.783 86.0029C97.3639 86.0029 80 103.473 80 125.022C80 136.515 85.9667 146.033 91.9333 152.036" stroke="white" stroke-width="8.20417"/>
<path d="M139.617 100.876L139.69 100.801L139.759 100.723C147.53 91.9164 157.384 84.1021 168.174 84.1021C190.059 84.1021 207.165 98.9569 207.165 120.716C207.165 130.553 205.853 137.245 203.618 142.326C201.894 146.243 199.536 149.395 196.47 152.392L162.77 119.103L160.366 116.728L157.575 118.633C157.048 118.993 156.542 119.34 156.054 119.674C154.169 120.967 152.558 122.073 151.044 122.999C149.147 124.16 147.711 124.839 146.514 125.148C145.42 125.431 144.546 125.4 143.642 125.079C142.654 124.727 141.342 123.921 139.617 122.156L139.611 122.149L139.604 122.142L129.172 111.567L139.617 100.876Z" stroke="white" stroke-width="8.20417"/>
<rect width="17.2959" height="23.6402" rx="8.64793" transform="matrix(0.738384 0.67438 -0.669906 0.742446 101.805 146.033)" stroke="white" stroke-width="8.20417"/>
<rect width="17.2959" height="23.6402" rx="8.64793" transform="matrix(0.738384 0.67438 -0.669906 0.742446 125.67 170.045)" stroke="white" stroke-width="8.20417"/>
<rect width="17.2959" height="23.6402" rx="8.64793" transform="matrix(0.738384 0.67438 -0.669906 0.742446 113.736 158.039)" stroke="white" stroke-width="8.20417"/>
<rect width="17.2959" height="23.6402" rx="8.64793" transform="matrix(0.738384 0.67438 -0.669906 0.742446 143.57 182.051)" stroke="white" stroke-width="8.20417"/>
<path d="M157.567 140.03L178.451 161.04C184.417 167.043 199.334 164.042 193.367 149.034" stroke="white" stroke-width="8.20417" stroke-linecap="round"/>
<path d="M145.633 152.036L166.517 173.047C170.859 177.415 179.109 176.37 181.433 170.045C182.303 167.678 181.433 164.042 178.45 161.041" stroke="white" stroke-width="8.20417" stroke-linecap="round"/>
<path d="M166.516 173.047C168.505 179.05 168.903 190.456 154.583 188.054" stroke="white" stroke-width="8.20417" stroke-linecap="round"/>
<g clip-path="url(#clip0_569_6666)">
<path d="M76.5687 44.5926L113.119 36L113.266 47.1111L72.4587 47.2593H66.7339L76.5687 44.5926Z" fill="white" stroke="#BF4E62" stroke-width="1.6" stroke-miterlimit="10" stroke-linecap="round" stroke-linejoin="round"/>
<path d="M99.3212 10.3701C99.3212 10.3701 98.2937 7.70344 95.5047 7.55529C95.5047 7.55529 94.3304 7.259 92.2753 8.29603C90.2203 9.33307 85.6698 11.7034 85.6698 11.7034L83.6148 18.8146C83.6148 18.8146 82.4405 21.4812 84.4955 22.0738C86.5506 22.6664 86.8441 21.7775 87.4313 19.8516C88.0185 17.9257 88.7524 14.5183 88.7524 14.5183L91.6882 13.0368C91.6882 13.0368 89.6331 13.7775 89.046 15.1108C88.6056 16.296 86.9909 21.4812 87.1377 22.9627C87.2845 24.4442 88.0185 25.6294 90.3671 26.6664C92.7157 27.7034 95.7983 29.9257 95.7983 29.9257L94.9175 37.3331C94.9175 37.3331 95.2111 39.5553 97.1194 39.4071C99.0276 39.259 99.1744 38.0738 99.6148 34.222C100.055 30.3701 100.202 30.0738 100.202 30.0738C100.202 30.0738 101.083 27.259 98.2937 25.9257L95.9451 24.7405C95.9451 24.7405 97.413 21.9257 98.2937 18.222C99.1744 14.8146 100.496 12.4442 99.3212 10.3701Z" fill="#FFAB94" stroke="#BF4E62" stroke-width="1.6" stroke-miterlimit="10" stroke-linecap="round" stroke-linejoin="round"/>
<path d="M99.0277 19.8516C99.0277 19.8516 102.697 21.6294 103.431 21.7775C104.165 21.9257 105.78 22.6664 106.367 20.5923C106.954 18.5183 105.34 18.0738 104.606 17.7775C103.872 17.4812 101.817 16.7405 101.817 16.7405L99.3213 10.3701C99.3213 10.3701 99.9084 12.1479 99.3213 14.3701C98.7341 16.5923 98.147 18.6664 98.147 18.6664C98.147 18.6664 98.8809 19.7034 99.0277 19.8516Z" fill="#FFAB94" stroke="#BF4E62" stroke-width="1.6" stroke-miterlimit="10" stroke-linecap="round" stroke-linejoin="round"/>
<path d="M90.6607 26.9628L88.6057 35.2591L85.0827 42.8146C85.0827 42.8146 82.2937 44.4443 81.7066 42.222C81.1194 39.8517 81.8534 39.9998 83.1745 36.8887C84.4956 33.9257 84.9359 32.8887 84.9359 32.8887L87.4314 23.4072C87.2846 23.4072 87.7249 26.0739 90.6607 26.9628Z" fill="#FFAB94" stroke="#BF4E62" stroke-width="1.6" stroke-miterlimit="10" stroke-linecap="round" stroke-linejoin="round"/>
<path d="M98.4407 8.79999C100.467 8.79999 102.11 7.14178 102.11 5.09628C102.11 3.05078 100.467 1.39258 98.4407 1.39258C96.414 1.39258 94.771 3.05078 94.771 5.09628C94.771 7.14178 96.414 8.79999 98.4407 8.79999Z" fill="white" stroke="#BF4E62" stroke-width="1.6" stroke-miterlimit="10" stroke-linecap="round" stroke-linejoin="round"/>
<path d="M83.9083 35.5554L72.8991 30.0739C72.3119 29.7776 72.0184 29.0368 72.3119 28.4443L75.6881 21.4813C75.9817 20.8887 76.7156 20.5924 77.3028 20.8887L88.3119 26.3702C88.8991 26.6665 89.1927 27.4072 88.8991 27.9998L85.523 34.9628C85.3762 35.7035 84.6422 35.8517 83.9083 35.5554Z" fill="#FC8900" stroke="#BF4E62" stroke-width="1.6" stroke-miterlimit="10" stroke-linecap="round" stroke-linejoin="round"/>
<path d="M75.2476 22.5183L78.1833 25.9257L83.4677 28.5923L88.7521 28.8886L89.4861 27.1108L78.1833 21.1849C78.0365 21.1849 76.2751 19.5553 75.2476 22.5183Z" stroke="#BF4E62" stroke-width="1.6" stroke-miterlimit="10"/>
<path d="M78.7704 26.3701L77.8896 28.4442L81.7062 30.5183L82.7337 28.296L78.7704 26.3701Z" fill="white" stroke="#BF4E62" stroke-width="1.6" stroke-miterlimit="10" stroke-linecap="round" stroke-linejoin="round"/>
<path d="M80.2388 21.7775L81.2663 19.8516L86.8443 22.8145L85.9635 24.7405" stroke="#BF4E62" stroke-width="1.6" stroke-miterlimit="10" stroke-linecap="round" stroke-linejoin="round"/>
</g>
<g clip-path="url(#clip1_569_6666)">
<path d="M209.65 2.25H194.35C191.95 2.25 190.15 4.2 190.15 6.45V9.6H194.35V6.45H209.5V9.6H213.7V6.45C213.85 4.2 211.9 2.25 209.65 2.25Z" fill="#BF4E62"/>
<path d="M220.9 11.3999H183.1C180.25 11.3999 178 13.6499 178 16.3499V40.3499C178 43.1999 180.25 45.4499 183.1 45.4499H221.05C223.9 45.4499 226.15 43.1999 226.15 40.3499V16.3499C226 13.6499 223.75 11.3999 220.9 11.3999ZM209.95 30.7499C209.95 31.0499 209.65 31.3499 209.35 31.3499H205V35.5499C205 35.8499 204.7 36.1499 204.4 36.1499H199.6C199.3 36.1499 199 35.8499 199 35.5499V31.4999H194.8C194.5 31.4999 194.2 31.1999 194.2 30.8999V26.0999C194.2 25.7999 194.5 25.4999 194.8 25.4999H199V21.2999C199 20.9999 199.3 20.6999 199.6 20.6999H204.4C204.7 20.6999 205 20.9999 205 21.2999V25.4999H209.2C209.5 25.4999 209.8 25.7999 209.8 26.0999V30.7499H209.95Z" fill="#BF4E62"/>
</g>
<g clip-path="url(#clip2_569_6666)">
<path d="M289.607 108.5C288.561 107.15 286.467 106.85 285.121 107.9L276.149 114.95C275.701 115.25 275.103 115.55 274.654 115.55H268.224C267.327 115.55 266.579 114.8 266.579 113.9C266.579 113 267.327 112.25 268.224 112.25H273.607C275.402 112.25 276.747 110.75 276.747 109.1C276.747 107.3 275.252 105.95 273.607 105.95H267.626H263.589H261.346H260.448C258.803 105.95 257.009 106.55 255.813 107.6L251.327 111.05C251.028 111.2 251.028 111.65 251.177 111.95L259.701 122.9C259.85 123.05 260 123.2 260.149 123.2L270.467 123.35H273.308C275.103 123.35 276.747 122.75 278.093 121.7L289.009 113C290.355 111.8 290.654 109.85 289.607 108.5Z" fill="white" stroke="#BF4E62" stroke-width="1.6" stroke-miterlimit="10" stroke-linecap="round"/>
<path d="M273.009 80.6001C266.879 80.6001 261.794 85.7001 261.794 91.8501C261.794 98.0001 266.879 103.1 273.009 103.1C279.14 103.1 284.224 98.0001 284.224 91.8501C284.224 85.7001 279.14 80.6001 273.009 80.6001ZM272.411 89.7501L274.953 91.1001C276.449 91.8501 277.346 93.5001 277.047 95.3001C276.897 96.6501 276 97.7001 274.804 98.3001V98.6001C274.804 99.5001 274.056 100.25 273.159 100.25C272.262 100.25 271.514 99.5001 271.514 98.6001V98.3001C270.318 97.8501 269.271 96.9501 268.673 95.7501C268.374 95.0001 268.673 93.9501 269.57 93.6501C270.318 93.3501 271.365 93.6501 271.664 94.5501C271.963 95.1501 272.561 95.4501 273.159 95.4501C273.608 95.3001 273.757 95.1501 273.757 94.8501C273.757 94.7001 273.757 94.2501 273.308 94.1001L270.916 92.4501C269.421 91.7001 268.523 89.9001 268.822 88.2501C269.122 86.7501 270.168 85.5501 271.664 85.2501V84.9501C271.664 84.0501 272.411 83.3001 273.308 83.3001C274.206 83.3001 274.953 84.0501 274.953 84.9501V85.5501C276 86.0001 276.748 86.9001 277.196 87.9501C277.495 88.7001 277.196 89.7501 276.299 90.0501C275.551 90.3501 274.505 90.0501 274.206 89.1501C273.907 88.5501 273.308 88.1001 272.71 88.2501C272.262 88.2501 272.112 88.7001 272.112 88.8501C271.963 89.0001 271.963 89.4501 272.411 89.7501Z" fill="#FC8900" stroke="#BF4E62" stroke-width="1.6" stroke-miterlimit="10" stroke-linecap="round" stroke-linejoin="round"/>
<path d="M248.785 112.85L244.598 115.85L253.421 127.1L257.757 124.1L248.785 112.85Z" fill="#BF4E62" stroke="#BF4E62" stroke-width="0.64" stroke-miterlimit="10" stroke-linecap="round" stroke-linejoin="round"/>
</g>
<g clip-path="url(#clip3_569_6666)">
<path d="M9.44982 126.973L9.59982 114.789C9.59982 114.789 3.29982 108.184 2.99982 102.165C2.69982 96.1469 4.64982 90.4222 8.54982 86.4589C12.4498 82.4956 20.3998 79.1194 29.2498 82.3488C38.0998 85.5781 39.7498 91.7433 40.4998 94.3855C41.2498 97.0277 41.0998 102.459 41.0998 102.459L44.6998 107.743C44.6998 107.743 46.0498 109.652 44.2498 110.239C42.4498 110.679 41.0998 110.826 41.0998 110.826C41.0998 110.826 41.5498 117.431 41.0998 118.899C40.6498 120.514 39.7498 122.569 36.4498 122.275C33.2998 121.982 28.7998 121.835 28.7998 121.835V127.119L9.44982 126.973Z" fill="white" stroke="#BF4E62" stroke-width="1.6" stroke-miterlimit="10" stroke-linecap="round" stroke-linejoin="round"/>
<path d="M18 84.4034C17.85 82.3484 16.05 80.5869 13.8 80.5869C12.45 80.5869 11.25 81.1741 10.5 82.2016C10.05 81.908 9.45 81.7612 8.7 81.7612C7.05 81.7612 5.7 82.9355 5.25 84.5502C4.95 84.4034 4.65 84.4034 4.35 84.4034C2.4 84.4034 0.75 85.8713 0.75 87.7796C0.75 89.6878 2.4 91.3025 4.35 91.3025C4.5 91.3025 4.5 91.3025 4.65 91.3025H17.7C19.65 91.3025 21.3 89.6878 21.3 87.7796C21.15 86.0181 19.8 84.5502 18 84.4034Z" fill="#FC8900" stroke="#BF4E62" stroke-width="1.6" stroke-miterlimit="10" stroke-linecap="round" stroke-linejoin="round"/>
<path d="M44.0998 87.7798C43.9498 86.4587 42.8998 85.4312 41.5498 85.4312C40.6498 85.4312 39.8998 85.8715 39.4498 86.4587C39.1498 86.3119 38.6998 86.1651 38.3998 86.1651C37.3498 86.1651 36.4498 86.899 36.1498 87.9266C35.9998 87.9266 35.6998 87.7798 35.5498 87.7798C34.3498 87.7798 33.2998 88.8073 33.2998 89.9816C33.2998 91.1559 34.3498 92.1834 35.5498 92.1834H35.6998H43.9498C45.1498 92.1834 46.1998 91.1559 46.1998 89.9816C46.1998 88.8073 45.2998 87.9266 44.0998 87.7798Z" fill="#FC8900" stroke="#BF4E62" stroke-width="1.6" stroke-miterlimit="10" stroke-linecap="round" stroke-linejoin="round"/>
<path d="M15.3002 103.339C15.0002 103.339 14.7002 102.752 14.7002 102.165V96.2935C14.7002 95.7063 15.0002 95.1191 15.3002 95.1191C15.6002 95.1191 15.9002 95.7063 15.9002 96.2935V102.165C15.9002 102.752 15.6002 103.339 15.3002 103.339Z" fill="#BF4E62" stroke="#BF4E62" stroke-width="0.47096" stroke-miterlimit="10" stroke-linecap="round" stroke-linejoin="round"/>
<path d="M18.3001 99.9634H12.3001C11.7001 99.9634 11.1001 99.6698 11.1001 99.3762C11.1001 99.0826 11.7001 98.7891 12.3001 98.7891H18.3001C18.9001 98.7891 19.5001 99.0826 19.5001 99.3762C19.5001 99.6698 18.9001 99.9634 18.3001 99.9634Z" fill="#BF4E62" stroke="#BF4E62" stroke-width="0.47104" stroke-miterlimit="10" stroke-linecap="round" stroke-linejoin="round"/>
<path d="M27.1502 93.2107C26.8502 93.2107 26.7002 92.7704 26.7002 92.33V88.0731C26.7002 87.6327 26.8502 87.1924 27.1502 87.1924C27.4502 87.1924 27.6002 87.6327 27.6002 88.0731V92.33C27.6002 92.9172 27.4502 93.2107 27.1502 93.2107Z" fill="#BF4E62" stroke="#BF4E62" stroke-width="0.34584" stroke-miterlimit="10" stroke-linecap="round" stroke-linejoin="round"/>
<path d="M29.3999 90.8622H25.0499C24.5999 90.8622 24.1499 90.7154 24.1499 90.4218C24.1499 90.1282 24.5999 89.9814 25.0499 89.9814H29.3999C29.8499 89.9814 30.2999 90.1282 30.2999 90.4218C30.1499 90.5686 29.8499 90.8622 29.3999 90.8622Z" fill="#BF4E62" stroke="#BF4E62" stroke-width="0.34584" stroke-miterlimit="10" stroke-linecap="round" stroke-linejoin="round"/>
<path d="M32.2498 101.284C32.0998 101.284 31.7998 100.991 31.7998 100.55V96.8804C31.7998 96.4401 31.9498 96.1465 32.2498 96.1465C32.5498 96.1465 32.6998 96.4401 32.6998 96.8804V100.55C32.6998 100.991 32.5498 101.284 32.2498 101.284Z" fill="#BF4E62" stroke="#BF4E62" stroke-width="0.29792" stroke-miterlimit="10" stroke-linecap="round" stroke-linejoin="round"/>
<path d="M34.1997 99.2289H30.4497C29.9997 99.2289 29.6997 99.0821 29.6997 98.7885C29.6997 98.6417 29.9997 98.3481 30.4497 98.3481H34.1997C34.6497 98.3481 34.9497 98.4949 34.9497 98.7885C34.9497 98.9353 34.6497 99.2289 34.1997 99.2289Z" fill="#BF4E62" stroke="#BF4E62" stroke-width="0.29792" stroke-miterlimit="10" stroke-linecap="round" stroke-linejoin="round"/>
<path d="M11.8498 104.66C11.6998 103.339 10.6498 102.312 9.2998 102.312C8.3998 102.312 7.6498 102.752 7.1998 103.339C6.8998 103.192 6.4498 103.045 6.1498 103.045C5.0998 103.045 4.1998 103.779 3.8998 104.807C3.7498 104.807 3.4498 104.66 3.2998 104.66C2.0998 104.66 1.0498 105.688 1.0498 106.862C1.0498 108.036 2.0998 109.064 3.2998 109.064H3.4498H10.3498H11.6998C12.8998 109.064 13.9498 108.036 13.9498 106.862C13.9498 105.688 13.0498 104.807 11.8498 104.66Z" fill="#FC8900" stroke="#BF4E62" stroke-width="1.6" stroke-miterlimit="10" stroke-linecap="round" stroke-linejoin="round"/>
</g>
<g clip-path="url(#clip4_569_6666)">
<path d="M23.0501 201.815L23.2001 193.666L22.4501 195.148L21.5501 197.222C21.5501 197.222 22.6001 201.222 23.0501 203.148C23.5001 205.074 23.8001 206.111 21.8501 206.555C19.9001 207 19.4501 205.222 19.4501 205.222L17.3501 196.778C17.3501 196.778 19.1501 193.074 20.2001 190.704C21.2501 188.333 23.8001 188.037 25.3001 187.889C26.8001 187.889 32.0501 187.889 32.0501 187.889C32.0501 187.889 38.6501 182.555 39.2501 182.555C40.0001 182.407 40.9001 182.407 41.3501 183.296C42.2501 184.926 40.6001 186.704 39.4001 187.592C36.4001 189.963 32.8001 193.074 32.8001 193.074L32.5001 206.852L33.2501 223.889C33.2501 223.889 33.2501 226.407 31.1501 226.111C29.0501 225.815 29.0501 224.778 29.0501 221.963C29.0501 219.148 28.6001 208.481 28.6001 208.481H27.2501L26.5001 223.741C26.5001 223.741 26.6501 226.111 24.5501 226.111C22.4501 226.111 22.0001 224.778 22.1501 222.852C22.3001 220.926 23.0501 206.704 23.0501 206.704C23.0501 206.704 25.0001 205.815 23.0501 201.815Z" fill="#FFAB94" stroke="#BF4E62" stroke-width="1.56667" stroke-miterlimit="10" stroke-linecap="round" stroke-linejoin="round"/>
<path d="M27.9998 187.593C29.9052 187.593 31.4498 186.067 31.4498 184.185C31.4498 182.303 29.9052 180.778 27.9998 180.778C26.0944 180.778 24.5498 182.303 24.5498 184.185C24.5498 186.067 26.0944 187.593 27.9998 187.593Z" fill="white" stroke="#BF4E62" stroke-width="1.56667" stroke-miterlimit="10"/>
<path d="M48.6998 188.333C48.6998 188.333 43.1498 183.148 43.1498 183C41.7998 181.815 39.3998 183 39.8498 184.778C40.1498 186.111 41.9498 187.296 42.8498 188.037L47.4998 192.63L47.9498 197.074L45.6998 211.593C45.6998 211.593 44.3498 215.296 47.3498 215.296C50.3498 215.296 57.5498 215.296 57.5498 215.296C57.5498 215.296 60.0998 215.444 59.3498 212.037C58.5998 208.63 57.9998 206.852 57.9998 206.852C57.9998 206.852 56.3498 206.259 57.0998 203.741L57.3998 202.407L56.1998 196.926L56.4998 195L58.7498 198.852L57.8498 201.37C57.8498 201.37 56.1998 205.667 58.2998 206.556C58.2998 206.556 60.0998 207.593 60.9998 205.37C61.7498 203.148 62.7998 198.259 62.7998 198.259L58.2998 190.852C58.2998 190.852 56.9498 188.482 55.5998 188.037C54.2498 187.741 52.5998 187 48.6998 188.333Z" fill="white" stroke="#BF4E62" stroke-width="1.56667" stroke-miterlimit="10" stroke-linecap="round" stroke-linejoin="round"/>
<path d="M51.6999 187.444C53.5224 187.444 54.9999 185.985 54.9999 184.185C54.9999 182.385 53.5224 180.926 51.6999 180.926C49.8774 180.926 48.3999 182.385 48.3999 184.185C48.3999 185.985 49.8774 187.444 51.6999 187.444Z" fill="white" stroke="#BF4E62" stroke-width="1.56667" stroke-miterlimit="10"/>
<path d="M47.7998 215.296L47.6498 224.185C47.6498 224.185 47.4998 226.111 49.5998 225.963C51.8498 225.815 51.3998 224.185 51.3998 223.296C51.3998 222.407 51.6998 215.296 51.6998 215.296H47.7998Z" stroke="#BF4E62" stroke-width="1.56667" stroke-miterlimit="10"/>
<path d="M53.2002 215.296L53.5002 223.593C53.5002 223.593 53.5002 226.556 55.3002 226.407C55.3002 226.407 57.4002 226.852 57.4002 224.185C57.4002 221.519 57.4002 215.445 57.4002 215.445L53.2002 215.296Z" stroke="#BF4E62" stroke-width="1.56667" stroke-miterlimit="10"/>
<path d="M55.6 185.371C56.05 186.408 56.8 187.445 57.85 187.889C59.5 188.482 59.65 187.889 59.65 187.889C59.65 187.889 58.45 185.815 58.15 184.185C58 182.408 58 180.037 55.75 180.482C53.5 180.926 53.5 181.222 53.5 181.222C53.95 181.519 54.25 181.815 54.55 182.111C55.3 183 55 183.741 55.3 184.778C55.45 185.074 55.45 185.222 55.6 185.371Z" fill="#FC8900" stroke="#BF4E62" stroke-width="1.175" stroke-miterlimit="10"/>
<path d="M39.6999 193.667C39.6999 193.667 37.5999 191.445 35.7999 193.815C35.7999 193.815 34.4499 195.148 36.9999 197.371C39.5499 199.593 39.6999 199.593 39.6999 199.593C41.1999 198.259 46.1499 195 42.9999 192.926C41.0499 191.741 39.6999 193.519 39.6999 193.667Z" fill="#BF4E62" stroke="#BF4E62" stroke-width="0.491542" stroke-miterlimit="10" stroke-linecap="round"/>
<path d="M39.4002 209.963C40.8914 209.963 42.1002 208.769 42.1002 207.297C42.1002 205.824 40.8914 204.63 39.4002 204.63C37.909 204.63 36.7002 205.824 36.7002 207.297C36.7002 208.769 37.909 209.963 39.4002 209.963Z" fill="white" stroke="#BF4E62" stroke-width="1.56667" stroke-miterlimit="10" stroke-linecap="round"/>
<path d="M37.7503 209.815L33.1003 208.482C33.1003 208.482 31.6003 208.037 31.4503 209.519C31.1503 211 32.9503 211.148 33.8503 211.445C34.9003 211.741 36.7003 212.333 36.7003 212.333L36.8503 217.074L36.1003 224.63C36.1003 224.63 35.9503 226.259 37.4503 226.407C38.9503 226.556 38.9503 225.519 39.1003 222.111L39.4003 219.445C39.4003 219.445 40.1503 225.074 40.4503 225.815C40.7503 226.556 41.5003 226.704 42.4003 226.259C43.1503 225.963 43.1503 225.37 42.8503 223.593C42.5503 221.815 41.8003 217.815 41.8003 217.815L41.6503 212.778L46.3003 210.704C46.3003 210.704 47.5003 210.259 47.0503 208.926C46.6003 207.593 45.2503 208.037 44.5003 208.482C43.7503 208.926 40.9003 210.111 40.9003 210.111H37.7503V209.815Z" fill="#FC8900" stroke="#BF4E62" stroke-width="1.56667" stroke-miterlimit="10" stroke-linecap="round" stroke-linejoin="round"/>
</g>
<g clip-path="url(#clip5_569_6666)">
<path d="M122.59 272.889V287.407H169.412V272.741C169.412 272.741 160.43 273.333 156.455 276.148C152.479 278.963 150.124 281.037 150.124 281.037C150.124 281.037 147.915 282.963 145.706 282.667C143.498 282.37 141.436 280.148 138.639 278.074C135.841 276 131.277 272.148 122.59 272.889Z" fill="#FFAB94" stroke="#BF4E62" stroke-width="1.6" stroke-miterlimit="10" stroke-linecap="round" stroke-linejoin="round"/>
<path d="M142.761 281.333V286.963" stroke="#BF4E62" stroke-width="1.6" stroke-miterlimit="10" stroke-linecap="round"/>
<path d="M148.945 282.37L149.093 287.259" stroke="#BF4E62" stroke-width="1.6" stroke-miterlimit="10" stroke-linecap="round"/>
<path d="M125.092 267.704C125.092 267.704 131.865 266.815 137.019 270.519C142.172 274.222 143.792 277.185 143.792 277.185" stroke="#BF4E62" stroke-width="1.6" stroke-miterlimit="10" stroke-linecap="round"/>
<path d="M125.534 270.37C125.534 270.37 129.51 270.518 132.307 271.555C135.105 272.592 138.344 274.815 138.344 274.815" stroke="#BF4E62" stroke-width="1.2" stroke-miterlimit="10" stroke-linecap="round"/>
<path d="M148.208 277.037C148.208 277.037 152.037 272.296 155.423 270.37C158.81 268.444 162.343 267.407 166.761 267.555" stroke="#BF4E62" stroke-width="1.6" stroke-miterlimit="10" stroke-linecap="round"/>
<path d="M153.215 274.963C153.215 274.963 155.865 272.296 160.282 271.111C164.7 269.926 166.319 270.222 166.319 270.222" stroke="#BF4E62" stroke-width="1.2" stroke-miterlimit="10" stroke-linecap="round"/>
<path d="M145.853 264.148C151.951 264.148 156.895 259.173 156.895 253.037C156.895 246.9 151.951 241.926 145.853 241.926C139.754 241.926 134.81 246.9 134.81 253.037C134.81 259.173 139.754 264.148 145.853 264.148Z" fill="white" stroke="#BF4E62" stroke-width="1.6" stroke-miterlimit="10" stroke-linecap="round"/>
<path d="M141.878 263.407C141.878 263.407 140.847 270.963 146 270.666C146 270.666 150.712 271.111 149.829 263.407C149.829 263.407 147.62 264.148 145.853 264.148C144.086 264.148 141.878 263.407 141.878 263.407Z" stroke="#BF4E62" stroke-width="1.6" stroke-miterlimit="10" stroke-linecap="round"/>
<path d="M135.988 269.185C135.988 269.185 138.32 267.84 139.963 267.407C141.2 266.963 141.877 266.963 141.877 266.963C141.877 266.963 142.614 269.63 143.939 270.222C145.264 270.815 147.031 271.259 148.061 270.222C149.092 269.185 149.828 267.111 149.828 267.111C149.828 267.111 151.742 266.963 153.362 267.704C155.129 268.444 156.16 269.185 156.16 269.185C156.16 269.185 150.712 273.778 147.914 277.333H143.6C143.6 277.333 140.552 271.259 135.988 269.185Z" fill="#FC8900" stroke="#BF4E62" stroke-width="1.6" stroke-miterlimit="10" stroke-linecap="round" stroke-linejoin="round"/>
</g>
<g clip-path="url(#clip6_569_6666)">
<path d="M249.446 183.396L236.97 195.873L243.525 202.429L256.002 189.952L249.446 183.396Z" fill="#FFAB94"/>
<path d="M249.533 184.532L254.916 190.065L243.551 201.43L238.019 195.897L249.533 184.532ZM249.533 182.439L236.075 195.897L243.701 203.523L257.159 190.065L249.533 182.439Z" fill="#BF4E62"/>
<path d="M248.934 220.719V225.056H229.794V220.719H248.934ZM250.43 219.224H228.299V226.551H250.43V219.224Z" fill="#BF4E62"/>
<path d="M231.29 219.543C231.29 219.543 230.691 215.805 233.981 215.805C237.271 215.805 244.149 215.805 244.149 215.805C244.149 215.805 247.589 215.506 247.29 219.543H231.29Z" stroke="#BF4E62" stroke-width="1.6" stroke-miterlimit="10"/>
<path d="M253.485 193.209L247.141 199.553L266.067 218.479L272.411 212.135L253.485 193.209Z" fill="#FFAB94"/>
<path d="M253.42 194.252L271.215 212.047L265.981 217.28L248.187 199.486L253.42 194.252ZM253.42 192.159L246.093 199.486L265.981 219.374L273.308 212.047L253.42 192.159Z" fill="#BF4E62"/>
<path d="M266.28 218.477C266.28 218.477 270.318 223.86 274.056 220.122C274.056 220.122 277.645 216.383 272.71 212.196L266.28 218.477Z" fill="#BF4E62" stroke="#BF4E62" stroke-width="1.6" stroke-miterlimit="10"/>
<path d="M239.664 205.766L233.981 200.084C233.084 199.187 233.084 197.841 233.981 196.944L234.281 196.645C235.178 195.747 236.524 195.747 237.421 196.645L243.103 202.327C244 203.224 244 204.57 243.103 205.467L242.804 205.766C241.907 206.663 240.561 206.663 239.664 205.766Z" fill="#FC8900" stroke="#BF4E62" stroke-width="1.6" stroke-miterlimit="10"/>
<path d="M256.262 189.467L250.58 183.785C249.682 182.888 249.682 181.542 250.58 180.645L250.879 180.346C251.776 179.449 253.122 179.449 254.019 180.346L259.701 186.028C260.598 186.925 260.598 188.271 259.701 189.168L259.402 189.467C258.505 190.364 257.01 190.364 256.262 189.467Z" fill="#FC8900" stroke="#BF4E62" stroke-width="1.6" stroke-miterlimit="10"/>
</g>
<defs>
<clipPath id="clip0_569_6666">
<rect width="48" height="48" fill="white" transform="translate(66)"/>
</clipPath>
<clipPath id="clip1_569_6666">
<rect width="48" height="48" fill="white" transform="translate(178)"/>
</clipPath>
<clipPath id="clip2_569_6666">
<rect width="48" height="48" fill="white" transform="translate(244 80)"/>
</clipPath>
<clipPath id="clip3_569_6666">
<rect width="48" height="48" fill="white" transform="translate(0 80)"/>
</clipPath>
<clipPath id="clip4_569_6666">
<rect width="48" height="48" fill="white" transform="translate(16 179)"/>
</clipPath>
<clipPath id="clip5_569_6666">
<rect width="48" height="48" fill="white" transform="translate(122 240)"/>
</clipPath>
<clipPath id="clip6_569_6666">
<rect width="48" height="48" fill="white" transform="translate(228 179)"/>
</clipPath>
</defs>
</svg>
