<svg width="335" height="260" viewBox="0 0 335 260" fill="none" xmlns="http://www.w3.org/2000/svg">
<path d="M0 16C0 7.16344 7.16344 0 16 0H318.286C327.122 0 334.286 7.16344 334.286 16V260H0V16Z" fill="white"/>
<rect x="26" y="82.6431" width="218.214" height="7.42857" fill="#D8A190"/>
<rect x="26" y="116.071" width="154.143" height="7.42857" fill="#D8A190"/>
<rect x="26" y="143" width="229.357" height="11.1429" fill="#FFE7A8"/>
<rect x="26" y="99.3569" width="254.429" height="7.42857" fill="#D8A190"/>
<path d="M67.4554 39.6849L55.7908 37.9854L50.5773 27.4213C49.6431 25.5382 46.9366 25.5143 45.9945 27.4213L40.7809 37.9854L29.1164 39.6849C27.0246 39.9881 26.1862 42.5653 27.7032 44.0414L36.1422 52.2597L34.1463 63.869C33.787 65.9674 35.9985 67.5393 37.8508 66.5579L48.2859 61.0764L58.7209 66.5579C60.5732 67.5313 62.7847 65.9674 62.4255 63.869L60.4295 52.2597L68.8685 44.0414C70.3855 42.5653 69.5472 39.9881 67.4554 39.6849ZM56.3177 50.9192L58.2099 61.962L48.2859 56.7518L38.3618 61.962L40.254 50.9192L32.2221 43.0998L43.3198 41.4881L48.2859 31.4347L53.2519 41.4881L64.3496 43.0998L56.3177 50.9192Z" fill="#8E3D57"/>
</svg>
