<svg width="62" height="61" viewBox="0 0 62 61" fill="none" xmlns="http://www.w3.org/2000/svg">
<path d="M13.75 55.6748L60.4375 44.7998L60.625 58.8623L8.5 59.0498H1.1875L13.75 55.6748Z" fill="white" stroke="#BF4E62" stroke-width="2" stroke-miterlimit="10" stroke-linecap="round" stroke-linejoin="round"/>
<path d="M42.8124 12.3626C42.8124 12.3626 41.4999 8.98758 37.9374 8.80008C37.9374 8.80008 36.4374 8.42508 33.8124 9.73757C31.1874 11.0501 25.3749 14.0501 25.3749 14.0501L22.7499 23.0501C22.7499 23.0501 21.2499 26.4251 23.8749 27.1751C26.4999 27.9251 26.8749 26.8001 27.6249 24.3626C28.3749 21.9251 29.3124 17.6126 29.3124 17.6126L33.0624 15.7376C33.0624 15.7376 30.4374 16.6751 29.6874 18.3626C29.1249 19.8626 27.0624 26.4251 27.2499 28.3001C27.4374 30.1751 28.3749 31.6751 31.3749 32.9876C34.3749 34.3001 38.3124 37.1126 38.3124 37.1126L37.1874 46.4876C37.1874 46.4876 37.5624 49.3001 39.9999 49.1126C42.4374 48.9251 42.6249 47.4251 43.1874 42.5501C43.7499 37.6751 43.9374 37.3001 43.9374 37.3001C43.9374 37.3001 45.0624 33.7376 41.4999 32.0501L38.4999 30.5501C38.4999 30.5501 40.3749 26.9876 41.4999 22.3001C42.6249 17.9876 44.3124 14.9876 42.8124 12.3626Z" fill="#FFAB94" stroke="#BF4E62" stroke-width="2" stroke-miterlimit="10" stroke-linecap="round" stroke-linejoin="round"/>
<path d="M42.4375 24.3618C42.4375 24.3618 47.125 26.6118 48.0625 26.7993C49 26.9868 51.0625 27.9243 51.8125 25.2993C52.5625 22.6743 50.5 22.1118 49.5625 21.7368C48.625 21.3618 46 20.4243 46 20.4243L42.8125 12.3618C42.8125 12.3618 43.5625 14.6118 42.8125 17.4243C42.0625 20.2368 41.3125 22.8618 41.3125 22.8618C41.3125 22.8618 42.25 24.1743 42.4375 24.3618Z" fill="#FFAB94" stroke="#BF4E62" stroke-width="2" stroke-miterlimit="10" stroke-linecap="round" stroke-linejoin="round"/>
<path d="M31.7506 33.3618L29.1256 43.8618L24.6256 53.4243C24.6256 53.4243 21.0631 55.4868 20.3131 52.6743C19.5631 49.6743 20.5006 49.8618 22.1881 45.9243C23.8756 42.1743 24.4381 40.8618 24.4381 40.8618L27.6256 28.8618C27.4381 28.8618 28.0006 32.2368 31.7506 33.3618Z" fill="#FFAB94" stroke="#BF4E62" stroke-width="2" stroke-miterlimit="10" stroke-linecap="round" stroke-linejoin="round"/>
<path d="M41.6885 10.375C44.2773 10.375 46.376 8.27634 46.376 5.6875C46.376 3.09867 44.2773 1 41.6885 1C39.0996 1 37.001 3.09867 37.001 5.6875C37.001 8.27634 39.0996 10.375 41.6885 10.375Z" fill="white" stroke="#BF4E62" stroke-width="2" stroke-miterlimit="10" stroke-linecap="round" stroke-linejoin="round"/>
<path d="M23.1256 44.237L9.06313 37.2995C8.31313 36.9245 7.93813 35.987 8.31313 35.237L12.6256 26.4245C13.0006 25.6745 13.9381 25.2995 14.6881 25.6745L28.7506 32.612C29.5006 32.987 29.8756 33.9245 29.5006 34.6745L25.1881 43.487C25.0006 44.4245 24.0631 44.612 23.1256 44.237Z" fill="#FC8900" stroke="#BF4E62" stroke-width="2" stroke-miterlimit="10" stroke-linecap="round" stroke-linejoin="round"/>
<path d="M12.0635 27.7368L15.8135 32.0493L22.5635 35.4243L29.3135 35.7993L30.251 33.5493L15.8135 26.0493C15.626 26.0493 13.376 23.9868 12.0635 27.7368Z" stroke="#BF4E62" stroke-width="2" stroke-miterlimit="10"/>
<path d="M16.5625 32.6118L15.4375 35.2368L20.3125 37.8618L21.625 35.0493L16.5625 32.6118Z" fill="white" stroke="#BF4E62" stroke-width="2" stroke-miterlimit="10" stroke-linecap="round" stroke-linejoin="round"/>
<path d="M18.4375 26.8003L19.75 24.3628L26.875 28.1128L25.75 30.5503" stroke="#BF4E62" stroke-width="2" stroke-miterlimit="10" stroke-linecap="round" stroke-linejoin="round"/>
</svg>
