<svg width="60" height="60" viewBox="0 0 60 60" fill="none" xmlns="http://www.w3.org/2000/svg">
<g clip-path="url(#clip0_143_932)">
<path d="M0.737305 41.111V59.2591H59.2649V40.9258C59.2649 40.9258 48.0379 41.6665 43.0686 45.185C38.0993 48.7036 35.1545 51.2962 35.1545 51.2962C35.1545 51.2962 32.3938 53.7036 29.633 53.3332C26.8723 52.9628 24.2956 50.185 20.7987 47.5924C17.3017 44.9999 11.5962 40.185 0.737305 41.111Z" fill="#FFAB94" stroke="#BF4E62" stroke-width="2" stroke-miterlimit="10" stroke-linecap="round" stroke-linejoin="round"/>
<path d="M25.9502 51.6665V58.7035" stroke="#BF4E62" stroke-width="2" stroke-miterlimit="10" stroke-linecap="round"/>
<path d="M33.6807 52.9629L33.8658 59.074" stroke="#BF4E62" stroke-width="2" stroke-miterlimit="10" stroke-linecap="round"/>
<path d="M3.86426 34.6296C3.86426 34.6296 12.3305 33.5185 18.7722 38.1481C25.2139 42.7777 27.2385 46.4814 27.2385 46.4814" stroke="#BF4E62" stroke-width="2" stroke-miterlimit="10" stroke-linecap="round"/>
<path d="M4.41699 37.9629C4.41699 37.9629 9.38632 38.1481 12.8832 39.4444C16.3802 40.7407 20.4293 43.5184 20.4293 43.5184" stroke="#BF4E62" stroke-width="1.5" stroke-miterlimit="10" stroke-linecap="round"/>
<path d="M32.7607 46.2966C32.7607 46.2966 37.546 40.3706 41.7792 37.9632C46.0123 35.5558 50.4295 34.2595 55.9509 34.4447" stroke="#BF4E62" stroke-width="2" stroke-miterlimit="10" stroke-linecap="round"/>
<path d="M39.0186 43.7039C39.0186 43.7039 42.3314 40.3706 47.8529 38.8891C53.3744 37.4076 55.3989 37.778 55.3989 37.778" stroke="#BF4E62" stroke-width="1.5" stroke-miterlimit="10" stroke-linecap="round"/>
<path d="M29.8154 30.185C37.439 30.185 43.6191 23.9667 43.6191 16.2961C43.6191 8.62549 37.439 2.40723 29.8154 2.40723C22.1918 2.40723 16.0117 8.62549 16.0117 16.2961C16.0117 23.9667 22.1918 30.185 29.8154 30.185Z" fill="white" stroke="#BF4E62" stroke-width="2" stroke-miterlimit="10" stroke-linecap="round"/>
<path d="M24.8464 29.2593C24.8464 29.2593 23.558 38.7037 29.9998 38.3334C29.9998 38.3334 35.8893 38.8889 34.785 29.2593C34.785 29.2593 32.0243 30.1852 29.8157 30.1852C27.6071 30.1852 24.8464 29.2593 24.8464 29.2593Z" stroke="#BF4E62" stroke-width="2" stroke-miterlimit="10" stroke-linecap="round"/>
<path d="M17.4844 36.4814C17.4844 36.4814 20.3997 34.7999 22.4537 34.2592C23.9997 33.7036 24.8463 33.7036 24.8463 33.7036C24.8463 33.7036 25.7666 37.0369 27.423 37.7777C29.0795 38.5184 31.2881 39.074 32.5764 37.7777C33.8648 36.4814 34.785 33.8888 34.785 33.8888C34.785 33.8888 37.1776 33.7036 39.2022 34.6295C41.4108 35.5555 42.6991 36.4814 42.6991 36.4814C42.6991 36.4814 35.8893 42.2221 32.3924 46.6666H26.9997C26.9997 46.6666 23.1899 39.074 17.4844 36.4814Z" fill="#FC8900" stroke="#BF4E62" stroke-width="2" stroke-miterlimit="10" stroke-linecap="round" stroke-linejoin="round"/>
</g>
<defs>
<clipPath id="clip0_143_932">
<rect width="60" height="60" fill="white"/>
</clipPath>
</defs>
</svg>
