<svg width="60" height="60" viewBox="0 0 60 60" fill="none" xmlns="http://www.w3.org/2000/svg">
<g clip-path="url(#clip0_143_919)">
<path d="M8.8125 28.5184L9 18.3332L8.0625 20.1851L6.9375 22.7777C6.9375 22.7777 8.25 27.7777 8.8125 30.1851C9.375 32.5925 9.75 33.8888 7.3125 34.4443C4.875 34.9999 4.3125 32.7777 4.3125 32.7777L1.6875 22.2221C1.6875 22.2221 3.9375 17.5925 5.25 14.6295C6.5625 11.6666 9.75 11.2962 11.625 11.111C13.5 11.111 20.0625 11.111 20.0625 11.111C20.0625 11.111 28.3125 4.44435 29.0625 4.44435C30 4.25916 31.125 4.25916 31.6875 5.37027C32.8125 7.40731 30.75 9.62953 29.25 10.7406C25.5 13.7036 21 17.5925 21 17.5925L20.625 34.8147L21.5625 56.111C21.5625 56.111 21.5625 59.2592 18.9375 58.8888C16.3125 58.5184 16.3125 57.2221 16.3125 53.7036C16.3125 50.1851 15.75 36.8518 15.75 36.8518H14.0625L13.125 55.9258C13.125 55.9258 13.3125 58.8888 10.6875 58.8888C8.0625 58.8888 7.5 57.2221 7.6875 54.8147C7.875 52.4073 8.8125 34.6295 8.8125 34.6295C8.8125 34.6295 11.25 33.5184 8.8125 28.5184Z" fill="#FFAB94" stroke="#BF4E62" stroke-width="2" stroke-miterlimit="10" stroke-linecap="round" stroke-linejoin="round"/>
<path d="M15 10.7407C17.3817 10.7407 19.3125 8.83375 19.3125 6.48143C19.3125 4.1291 17.3817 2.22217 15 2.22217C12.6183 2.22217 10.6875 4.1291 10.6875 6.48143C10.6875 8.83375 12.6183 10.7407 15 10.7407Z" fill="white" stroke="#BF4E62" stroke-width="2" stroke-miterlimit="10"/>
<path d="M40.8749 11.6668C40.8749 11.6668 33.9374 5.18534 33.9374 5.00015C32.2499 3.51867 29.2499 5.00015 29.8124 7.22237C30.1874 8.88904 32.4374 10.3705 33.5624 11.2964L39.3749 17.0372L39.9374 22.5927L37.1249 40.7409C37.1249 40.7409 35.4374 45.3705 39.1874 45.3705C42.9374 45.3705 51.9374 45.3705 51.9374 45.3705C51.9374 45.3705 55.1249 45.5557 54.1874 41.2964C53.2499 37.0372 52.4999 34.815 52.4999 34.815C52.4999 34.815 50.4374 34.0742 51.3749 30.9261L51.7499 29.2594L50.2499 22.4076L50.6249 20.0001L53.4374 24.815L52.3124 27.9631C52.3124 27.9631 50.2499 33.3335 52.8749 34.4446C52.8749 34.4446 55.1249 35.7409 56.2499 32.9631C57.1874 30.1853 58.4999 24.0742 58.4999 24.0742L52.8749 14.815C52.8749 14.815 51.1874 11.852 49.4999 11.2964C47.8124 10.9261 45.7499 10.0002 40.8749 11.6668Z" fill="white" stroke="#BF4E62" stroke-width="2" stroke-miterlimit="10" stroke-linecap="round" stroke-linejoin="round"/>
<path d="M44.625 10.5554C46.9032 10.5554 48.75 8.73135 48.75 6.4813C48.75 4.23125 46.9032 2.40723 44.625 2.40723C42.3468 2.40723 40.5 4.23125 40.5 6.4813C40.5 8.73135 42.3468 10.5554 44.625 10.5554Z" fill="white" stroke="#BF4E62" stroke-width="2" stroke-miterlimit="10"/>
<path d="M39.75 45.3701L39.5625 56.4812C39.5625 56.4812 39.375 58.8886 42 58.7035C44.8125 58.5183 44.25 56.4812 44.25 55.3701C44.25 54.259 44.625 45.3701 44.625 45.3701H39.75Z" stroke="#BF4E62" stroke-width="2" stroke-miterlimit="10"/>
<path d="M46.5 45.3701L46.875 55.7405C46.875 55.7405 46.875 59.4442 49.125 59.259C49.125 59.259 51.75 59.8146 51.75 56.4812C51.75 53.1479 51.75 45.5553 51.75 45.5553L46.5 45.3701Z" stroke="#BF4E62" stroke-width="2" stroke-miterlimit="10"/>
<path d="M49.5 7.96285C50.0625 9.25915 51 10.5554 52.3125 11.111C54.375 11.8517 54.5625 11.111 54.5625 11.111C54.5625 11.111 53.0625 8.51841 52.6875 6.48137C52.5 4.25915 52.5 1.29619 49.6875 1.85174C46.875 2.4073 46.875 2.77767 46.875 2.77767C47.4375 3.14804 47.8125 3.51841 48.1875 3.88878C49.125 4.99989 48.75 5.92582 49.125 7.22211C49.3125 7.59248 49.3125 7.77767 49.5 7.96285Z" fill="#FC8900" stroke="#BF4E62" stroke-width="1.5" stroke-miterlimit="10"/>
<path d="M29.625 18.3332C29.625 18.3332 27 15.5554 24.75 18.5184C24.75 18.5184 23.0625 20.1851 26.25 22.9628C29.4375 25.7406 29.625 25.7406 29.625 25.7406C31.5 24.074 37.6875 19.9999 33.75 17.4073C31.3125 15.9258 29.625 18.148 29.625 18.3332Z" fill="#BF4E62" stroke="#BF4E62" stroke-width="0.6275" stroke-miterlimit="10" stroke-linecap="round"/>
<path d="M29.25 38.7038C31.114 38.7038 32.625 37.2114 32.625 35.3704C32.625 33.5295 31.114 32.0371 29.25 32.0371C27.386 32.0371 25.875 33.5295 25.875 35.3704C25.875 37.2114 27.386 38.7038 29.25 38.7038Z" fill="white" stroke="#BF4E62" stroke-width="2" stroke-miterlimit="10" stroke-linecap="round"/>
<path d="M27.1872 38.5186L21.3747 36.8519C21.3747 36.8519 19.4997 36.2964 19.3122 38.1482C18.9372 40.0001 21.1872 40.1853 22.3122 40.5556C23.6247 40.926 25.8747 41.6668 25.8747 41.6668L26.0622 47.5927L25.1247 57.0371C25.1247 57.0371 24.9372 59.0742 26.8122 59.2593C28.6872 59.4445 28.6872 58.1482 28.8747 53.889L29.2497 50.5556C29.2497 50.5556 30.1872 57.5927 30.5622 58.5186C30.9372 59.4445 31.8747 59.6297 32.9997 59.0742C33.9372 58.7038 33.9372 57.963 33.5622 55.7408C33.1872 53.5186 32.2497 48.5186 32.2497 48.5186L32.0622 42.2223L37.8747 39.6297C37.8747 39.6297 39.3747 39.0742 38.8122 37.4075C38.2497 35.7408 36.5622 36.2964 35.6247 36.8519C34.6872 37.4075 31.1247 38.889 31.1247 38.889H27.1872V38.5186Z" fill="#FC8900" stroke="#BF4E62" stroke-width="2" stroke-miterlimit="10" stroke-linecap="round" stroke-linejoin="round"/>
</g>
<defs>
<clipPath id="clip0_143_919">
<rect width="60" height="60" fill="white"/>
</clipPath>
</defs>
</svg>
