<svg width="60" height="60" viewBox="0 0 60 60" fill="none" xmlns="http://www.w3.org/2000/svg">
<g clip-path="url(#clip0_143_890)">
<path d="M57.0098 35.625C55.7014 33.9375 53.0845 33.5625 51.4023 34.875L40.1873 43.6875C39.6266 44.0625 38.8789 44.4375 38.3182 44.4375H30.2808C29.1593 44.4375 28.2247 43.5 28.2247 42.375C28.2247 41.25 29.1593 40.3125 30.2808 40.3125H37.0098C39.2528 40.3125 40.935 38.4375 40.935 36.375C40.935 34.125 39.0658 32.4375 37.0098 32.4375H29.5331H24.4864H21.6827H20.5612C18.5051 32.4375 16.2621 33.1875 14.7668 34.5L9.1593 38.8125C8.78547 39 8.78547 39.5625 8.97239 39.9375L19.6266 53.625C19.8135 53.8125 20.0004 54 20.1873 54L33.0845 54.1875H36.6359C38.8789 54.1875 40.935 53.4375 42.6172 52.125L56.2621 41.25C57.9444 39.75 58.3182 37.3125 57.0098 35.625Z" fill="white" stroke="#BF4E62" stroke-width="2" stroke-miterlimit="10" stroke-linecap="round"/>
<path d="M36.2619 0.75C28.5983 0.75 22.2432 7.125 22.2432 14.8125C22.2432 22.5 28.5983 28.875 36.2619 28.875C43.9254 28.875 50.2805 22.5 50.2805 14.8125C50.2805 7.125 43.9254 0.75 36.2619 0.75ZM35.5142 12.1875L38.6918 13.875C40.5609 14.8125 41.6824 16.875 41.3086 19.125C41.1217 20.8125 40.0002 22.125 38.5048 22.875V23.25C38.5048 24.375 37.5703 25.3125 36.4488 25.3125C35.3273 25.3125 34.3927 24.375 34.3927 23.25V22.875C32.8974 22.3125 31.589 21.1875 30.8413 19.6875C30.4675 18.75 30.8413 17.4375 31.9628 17.0625C32.8974 16.6875 34.2058 17.0625 34.5796 18.1875C34.9534 18.9375 35.7011 19.3125 36.4488 19.3125C37.0095 19.125 37.1964 18.9375 37.1964 18.5625C37.1964 18.375 37.1964 17.8125 36.6357 17.625L33.645 15.5625C31.7759 14.625 30.6544 12.375 31.0282 10.3125C31.402 8.4375 32.7105 6.9375 34.5796 6.5625V6.1875C34.5796 5.0625 35.5142 4.125 36.6357 4.125C37.7572 4.125 38.6918 5.0625 38.6918 6.1875V6.9375C40.0002 7.5 40.9348 8.625 41.4955 9.9375C41.8693 10.875 41.4955 12.1875 40.374 12.5625C39.4394 12.9375 38.131 12.5625 37.7572 11.4375C37.3834 10.6875 36.6357 10.125 35.888 10.3125C35.3273 10.3125 35.1404 10.875 35.1404 11.0625C34.9534 11.25 34.9534 11.8125 35.5142 12.1875Z" fill="#FC8900" stroke="#BF4E62" stroke-width="2" stroke-miterlimit="10" stroke-linecap="round" stroke-linejoin="round"/>
<path d="M5.98169 41.0625L0.748047 44.8125L11.7761 58.875L17.1966 55.125L5.98169 41.0625Z" fill="#BF4E62" stroke="#BF4E62" stroke-width="0.8" stroke-miterlimit="10" stroke-linecap="round" stroke-linejoin="round"/>
</g>
<defs>
<clipPath id="clip0_143_890">
<rect width="60" height="60" fill="white"/>
</clipPath>
</defs>
</svg>
