<svg width="60" height="60" viewBox="0 0 60 60" fill="none" xmlns="http://www.w3.org/2000/svg">
<g clip-path="url(#clip0_143_883)">
<path d="M39.5625 2.8125H20.4375C17.4375 2.8125 15.1875 5.25 15.1875 8.0625V12H20.4375V8.0625H39.375V12H44.625V8.0625C44.8125 5.25 42.375 2.8125 39.5625 2.8125Z" fill="#BF4E62"/>
<path d="M53.625 14.25H6.375C2.8125 14.25 0 17.0625 0 20.4375V50.4375C0 54 2.8125 56.8125 6.375 56.8125H53.8125C57.375 56.8125 60.1875 54 60.1875 50.4375V20.4375C60 17.0625 57.1875 14.25 53.625 14.25ZM39.9375 38.4375C39.9375 38.8125 39.5625 39.1875 39.1875 39.1875H33.75V44.4375C33.75 44.8125 33.375 45.1875 33 45.1875H27C26.625 45.1875 26.25 44.8125 26.25 44.4375V39.375H21C20.625 39.375 20.25 39 20.25 38.625V32.625C20.25 32.25 20.625 31.875 21 31.875H26.25V26.625C26.25 26.25 26.625 25.875 27 25.875H33C33.375 25.875 33.75 26.25 33.75 26.625V31.875H39C39.375 31.875 39.75 32.25 39.75 32.625V38.4375H39.9375Z" fill="#BF4E62"/>
</g>
<defs>
<clipPath id="clip0_143_883">
<rect width="60" height="60" fill="white"/>
</clipPath>
</defs>
</svg>
