<svg width="62" height="61" viewBox="0 0 62 61" fill="none" xmlns="http://www.w3.org/2000/svg">
<path d="M27.8917 6.32563L12.2471 21.9702L20.4671 30.1903L36.1117 14.5457L27.8917 6.32563Z" fill="#FFAB94"/>
<path d="M28 7.75L34.75 14.6875L20.5 28.9375L13.5625 22L28 7.75ZM28 5.125L11.125 22L20.6875 31.5625L37.5625 14.6875L28 5.125Z" fill="#BF4E62"/>
<path d="M27.25 53.125V58.5625H3.25V53.125H27.25ZM29.125 51.25H1.375V60.4375H29.125V51.25Z" fill="#BF4E62"/>
<path d="M5.12462 51.6498C5.12462 51.6498 4.37462 46.9623 8.49962 46.9623C12.6246 46.9623 21.2496 46.9623 21.2496 46.9623C21.2496 46.9623 25.5621 46.5873 25.1871 51.6498H5.12462Z" stroke="#BF4E62" stroke-width="2" stroke-miterlimit="10"/>
<path d="M32.9559 18.6291L25.001 26.584L48.733 50.316L56.6879 42.3612L32.9559 18.6291Z" fill="#FFAB94"/>
<path d="M32.875 19.9375L55.1875 42.25L48.625 48.8125L26.3125 26.5L32.875 19.9375ZM32.875 17.3125L23.6875 26.5L48.625 51.4375L57.8125 42.25L32.875 17.3125Z" fill="#BF4E62"/>
<path d="M49 50.3125C49 50.3125 54.0625 57.0625 58.75 52.375C58.75 52.375 63.25 47.6875 57.0625 42.4375L49 50.3125Z" fill="#BF4E62" stroke="#BF4E62" stroke-width="2" stroke-miterlimit="10"/>
<path d="M15.625 34.375L8.5 27.25C7.375 26.125 7.375 24.4375 8.5 23.3125L8.875 22.9375C10 21.8125 11.6875 21.8125 12.8125 22.9375L19.9375 30.0625C21.0625 31.1875 21.0625 32.875 19.9375 34L19.5625 34.375C18.4375 35.5 16.75 35.5 15.625 34.375Z" fill="#FC8900" stroke="#BF4E62" stroke-width="2" stroke-miterlimit="10"/>
<path d="M36.4375 13.9375L29.3125 6.8125C28.1875 5.6875 28.1875 4 29.3125 2.875L29.6875 2.5C30.8125 1.375 32.5 1.375 33.625 2.5L40.75 9.625C41.875 10.75 41.875 12.4375 40.75 13.5625L40.375 13.9375C39.25 15.0625 37.375 15.0625 36.4375 13.9375Z" fill="#FC8900" stroke="#BF4E62" stroke-width="2" stroke-miterlimit="10"/>
</svg>
