<svg width="60" height="60" viewBox="0 0 60 60" fill="none" xmlns="http://www.w3.org/2000/svg">
<g clip-path="url(#clip0_143_896)">
<path d="M11.813 58.716L12.0005 43.4867C12.0005 43.4867 4.1255 35.2298 3.7505 27.7069C3.3755 20.1839 5.813 13.028 10.688 8.07383C15.563 3.1197 25.5005 -1.10048 36.563 2.93622C47.6255 6.97291 49.688 14.6793 50.6255 17.9821C51.563 21.2848 51.3755 28.0738 51.3755 28.0738L55.8755 34.6793C55.8755 34.6793 57.563 37.0647 55.313 37.7986C53.063 38.3491 51.3755 38.5325 51.3755 38.5325C51.3755 38.5325 51.938 46.7894 51.3755 48.6243C50.813 50.6426 49.688 53.2114 45.563 52.8445C41.6255 52.4775 36.0005 52.294 36.0005 52.294V58.8995L11.813 58.716Z" fill="white" stroke="#BF4E62" stroke-width="2" stroke-miterlimit="10" stroke-linecap="round" stroke-linejoin="round"/>
<path d="M22.5 5.50502C22.3125 2.93621 20.0625 0.734375 17.25 0.734375C15.5625 0.734375 14.0625 1.46832 13.125 2.75272C12.5625 2.38575 11.8125 2.20226 10.875 2.20226C8.8125 2.20226 7.125 3.67015 6.5625 5.6885C6.1875 5.50502 5.8125 5.50502 5.4375 5.50502C3 5.50502 0.9375 7.33988 0.9375 9.7252C0.9375 12.1105 3 14.1289 5.4375 14.1289C5.625 14.1289 5.625 14.1289 5.8125 14.1289H22.125C24.5625 14.1289 26.625 12.1105 26.625 9.7252C26.4375 7.52337 24.75 5.6885 22.5 5.50502Z" fill="#FC8900" stroke="#BF4E62" stroke-width="2" stroke-miterlimit="10" stroke-linecap="round" stroke-linejoin="round"/>
<path d="M55.125 9.72533C54.9375 8.07395 53.625 6.78955 51.9375 6.78955C50.8125 6.78955 49.875 7.34001 49.3125 8.07395C48.9375 7.89047 48.375 7.70698 48 7.70698C46.6875 7.70698 45.5625 8.62441 45.1875 9.90882C45 9.90882 44.625 9.72533 44.4375 9.72533C42.9375 9.72533 41.625 11.0097 41.625 12.4776C41.625 13.9455 42.9375 15.2299 44.4375 15.2299H44.625H54.9375C56.4375 15.2299 57.75 13.9455 57.75 12.4776C57.75 11.0097 56.625 9.90882 55.125 9.72533Z" fill="#FC8900" stroke="#BF4E62" stroke-width="2" stroke-miterlimit="10" stroke-linecap="round" stroke-linejoin="round"/>
<path d="M19.125 29.1746C18.75 29.1746 18.375 28.4407 18.375 27.7068V20.3673C18.375 19.6334 18.75 18.8994 19.125 18.8994C19.5 18.8994 19.875 19.6334 19.875 20.3673V27.7068C19.875 28.4407 19.5 29.1746 19.125 29.1746Z" fill="#BF4E62" stroke="#BF4E62" stroke-width="0.5887" stroke-miterlimit="10" stroke-linecap="round" stroke-linejoin="round"/>
<path d="M22.875 24.9542H15.375C14.625 24.9542 13.875 24.5872 13.875 24.2203C13.875 23.8533 14.625 23.4863 15.375 23.4863H22.875C23.625 23.4863 24.375 23.8533 24.375 24.2203C24.375 24.5872 23.625 24.9542 22.875 24.9542Z" fill="#BF4E62" stroke="#BF4E62" stroke-width="0.5888" stroke-miterlimit="10" stroke-linecap="round" stroke-linejoin="round"/>
<path d="M33.9375 16.5141C33.5625 16.5141 33.375 15.9637 33.375 15.4132V10.0921C33.375 9.54167 33.5625 8.99121 33.9375 8.99121C34.3125 8.99121 34.5 9.54167 34.5 10.0921V15.4132C34.5 16.1472 34.3125 16.5141 33.9375 16.5141Z" fill="#BF4E62" stroke="#BF4E62" stroke-width="0.4323" stroke-miterlimit="10" stroke-linecap="round" stroke-linejoin="round"/>
<path d="M36.75 13.5785H31.3125C30.75 13.5785 30.1875 13.395 30.1875 13.028C30.1875 12.661 30.75 12.4775 31.3125 12.4775H36.75C37.3125 12.4775 37.875 12.661 37.875 13.028C37.6875 13.2115 37.3125 13.5785 36.75 13.5785Z" fill="#BF4E62" stroke="#BF4E62" stroke-width="0.4323" stroke-miterlimit="10" stroke-linecap="round" stroke-linejoin="round"/>
<path d="M40.3125 26.6061C40.125 26.6061 39.75 26.2391 39.75 25.6887V21.1015C39.75 20.5511 39.9375 20.1841 40.3125 20.1841C40.6875 20.1841 40.875 20.5511 40.875 21.1015V25.6887C40.875 26.2391 40.6875 26.6061 40.3125 26.6061Z" fill="#BF4E62" stroke="#BF4E62" stroke-width="0.3724" stroke-miterlimit="10" stroke-linecap="round" stroke-linejoin="round"/>
<path d="M42.75 24.0374H38.0625C37.5 24.0374 37.125 23.854 37.125 23.487C37.125 23.3035 37.5 22.9365 38.0625 22.9365H42.75C43.3125 22.9365 43.6875 23.12 43.6875 23.487C43.6875 23.6705 43.3125 24.0374 42.75 24.0374Z" fill="#BF4E62" stroke="#BF4E62" stroke-width="0.3724" stroke-miterlimit="10" stroke-linecap="round" stroke-linejoin="round"/>
<path d="M14.8125 30.8259C14.625 29.1745 13.3125 27.8901 11.625 27.8901C10.5 27.8901 9.5625 28.4406 9 29.1745C8.625 28.9911 8.0625 28.8076 7.6875 28.8076C6.375 28.8076 5.25 29.725 4.875 31.0094C4.6875 31.0094 4.3125 30.8259 4.125 30.8259C2.625 30.8259 1.3125 32.1103 1.3125 33.5782C1.3125 35.0461 2.625 36.3305 4.125 36.3305H4.3125H12.9375H14.625C16.125 36.3305 17.4375 35.0461 17.4375 33.5782C17.4375 32.1103 16.3125 31.0094 14.8125 30.8259Z" fill="#FC8900" stroke="#BF4E62" stroke-width="2" stroke-miterlimit="10" stroke-linecap="round" stroke-linejoin="round"/>
</g>
<defs>
<clipPath id="clip0_143_896">
<rect width="60" height="60" fill="white"/>
</clipPath>
</defs>
</svg>
