<svg width="48" height="48" viewBox="0 0 48 48" fill="none" xmlns="http://www.w3.org/2000/svg">
<path d="M25 12.3902C22.8182 10.9268 21.3788 9.46338 18.4545 9.46338C13.2329 9.46338 9 13.7221 9 18.9755C9 21.7772 10.4545 24.0974 11.9091 25.5608" stroke="#737373" stroke-width="2"/>
<path d="M23.5335 13.089L23.5512 13.0709L23.568 13.0518C25.4623 10.905 27.8645 9 30.495 9C35.8301 9 40 12.6213 40 17.9257C40 20.3237 39.6804 21.9552 39.1354 23.1936C38.7152 24.1486 38.1404 24.9171 37.3929 25.6476L29.1775 17.5324L28.5915 16.9535L27.9111 17.4178C27.7826 17.5055 27.6592 17.5901 27.5404 17.6717C27.0809 17.9869 26.6881 18.2565 26.3191 18.4822C25.8565 18.7652 25.5064 18.9309 25.2147 19.0062C24.9481 19.075 24.7349 19.0676 24.5146 18.9892C24.2738 18.9035 23.9538 18.707 23.5335 18.2767L23.5301 18.2733L20.9872 15.6954L23.5335 13.089Z" stroke="#737373" stroke-width="2"/>
<rect width="4.21636" height="5.76298" rx="2.10818" transform="matrix(0.738384 0.67438 -0.669906 0.742446 14.3154 24.0977)" stroke="#737373" stroke-width="2"/>
<rect width="4.21636" height="5.76298" rx="2.10818" transform="matrix(0.738384 0.67438 -0.669906 0.742446 20.1338 29.9512)" stroke="#737373" stroke-width="2"/>
<rect width="4.21636" height="5.76298" rx="2.10818" transform="matrix(0.738384 0.67438 -0.669906 0.742446 17.2246 27.0244)" stroke="#737373" stroke-width="2"/>
<rect width="4.21636" height="5.76298" rx="2.10818" transform="matrix(0.738384 0.67438 -0.669906 0.742446 24.4971 32.8779)" stroke="#737373" stroke-width="2"/>
<path d="M27.9092 22.6343L33.0001 27.7562C34.4546 29.2196 38.091 28.4879 36.6365 24.8294" stroke="#737373" stroke-width="2" stroke-linecap="round"/>
<path d="M25 25.561L30.0909 30.6829C31.1494 31.7479 33.1606 31.4931 33.7273 29.9512C33.9393 29.3743 33.7273 28.4878 33 27.7561" stroke="#737373" stroke-width="2" stroke-linecap="round"/>
<path d="M30.0907 30.6826C30.5756 32.146 30.6725 34.9265 27.1816 34.3411" stroke="#737373" stroke-width="2" stroke-linecap="round"/>
</svg>
