<svg width="48" height="48" viewBox="0 0 48 48" fill="none" xmlns="http://www.w3.org/2000/svg">
<path d="M12.3633 34.182C12.6408 33.3495 14.6446 30.5877 17.5307 29.9216C21.1384 29.0891 21.1384 27.8403 21.2772 27.5628C21.3421 27.433 21.4101 27.2335 21.4647 27.0533C21.5076 26.9117 21.3741 26.7808 21.2291 26.8102C20.6717 26.9233 19.7788 27.0009 19.0571 26.7302C18.3805 26.4765 17.7684 26.2067 17.3925 26.0312C17.264 25.9712 17.2449 25.7939 17.3454 25.6939C17.7577 25.2834 18.3661 24.4518 18.6408 23.2613C19.0571 21.4575 18.502 19.3762 19.3346 17.5723C20.1671 15.7685 21.5547 13.9647 24.191 13.8259C26.8274 13.6872 27.9374 15.491 28.4925 16.1848C29.0475 16.8786 29.4638 18.9599 29.4638 20.7637C29.4638 22.5676 29.7413 23.6776 30.2963 24.6489C30.6156 25.2076 30.9539 25.5607 31.1877 25.7494C31.289 25.8312 31.3091 25.9905 31.2045 26.068C30.8031 26.3654 30.0068 26.7775 28.9087 26.869C27.9949 26.9451 27.4207 26.9386 27.1053 26.912C26.9708 26.9007 26.8383 27.0152 26.8666 27.1472C27.0494 27.9988 27.8755 29.386 30.1575 29.7829C33.3489 30.3379 34.8059 32.6676 35.4996 33.5002" stroke="#737373" stroke-width="2"/>
<circle cx="24" cy="24" r="15" stroke="#737373" stroke-width="2"/>
</svg>
