<svg width="21" height="25" viewBox="0 0 21 25" fill="none" xmlns="http://www.w3.org/2000/svg">
<g clip-path="url(#clip0_722_2977)">
<mask id="mask0_722_2977" style="mask-type:alpha" maskUnits="userSpaceOnUse" x="0" y="0" width="22" height="25">
<path fill-rule="evenodd" clip-rule="evenodd" d="M21.0248 0H0V25H21.0248V0Z" fill="white"/>
</mask>
<g mask="url(#mask0_722_2977)">
<path fill-rule="evenodd" clip-rule="evenodd" d="M2.15705 7.62515C3.843 5.90015 6.42151 5.67515 8.28102 6.25015C10.5124 6.95015 11.4298 8.57515 11.9504 10.4752C12.3471 11.9252 12.2232 12.5002 11.6777 11.6752C10.3637 9.67515 8.87606 8.75015 7.26449 8.97515C4.66118 9.32515 3.57027 12.0502 3.44631 13.9002C3.32234 15.9002 3.81821 18.6252 5.20664 21.2002C6.04961 22.7502 6.91738 23.7752 7.71077 24.7752C8.00829 25.1502 6.86779 24.9252 5.7273 24.0502C4.06614 22.8002 1.23969 19.4752 0.396719 15.8502C-0.570223 11.8002 0.421513 9.40015 2.15705 7.62515ZM12.9422 12.7752C13.7604 12.0252 14.3058 11.5002 15.2975 11.2502C17.3554 10.7252 18.5951 13.3252 17.8017 15.5252C16.8843 18.0502 15.8678 19.6752 14.3554 21.9252C13.8595 22.6752 15.0496 22.4002 16.1901 21.3002C18.2728 19.3252 20.4298 17.1502 20.9256 14.2002C21.5207 10.6752 19.1157 8.95015 17.2314 8.95015C15.248 8.95015 13.8099 10.2502 12.843 11.7252C12.2728 12.5752 11.7273 13.8752 12.9422 12.7752Z" fill="#014987"/>
</g>
<mask id="mask1_722_2977" style="mask-type:alpha" maskUnits="userSpaceOnUse" x="0" y="0" width="22" height="25">
<path fill-rule="evenodd" clip-rule="evenodd" d="M21.0248 0H0V25H21.0248V0Z" fill="white"/>
</mask>
<g mask="url(#mask1_722_2977)">
<path fill-rule="evenodd" clip-rule="evenodd" d="M11.2066 3.39994C10.9091 4.99994 9.61983 6.12494 8.30578 5.87494C6.99173 5.62494 6.19834 4.12494 6.49586 2.52494C6.79338 0.924936 8.08264 -0.200064 9.39669 0.0499359C10.7107 0.274936 11.5041 1.77494 11.2066 3.39994ZM9.81817 2.02494C9.29751 1.92494 8.75206 2.49994 8.6033 3.29994C8.45454 4.09994 8.75206 4.82494 9.27272 4.92494C9.79338 5.02494 10.3388 4.44994 10.4876 3.64994C10.6364 2.84994 10.3388 2.12494 9.81817 2.02494Z" fill="#B0193E"/>
</g>
<mask id="mask2_722_2977" style="mask-type:alpha" maskUnits="userSpaceOnUse" x="0" y="0" width="22" height="25">
<path fill-rule="evenodd" clip-rule="evenodd" d="M21.0248 0H0V25H21.0248V0Z" fill="white"/>
</mask>
<g mask="url(#mask2_722_2977)">
<path fill-rule="evenodd" clip-rule="evenodd" d="M20.7024 5.725C20.6776 7.175 19.7107 8.35 18.5454 8.35C17.3553 8.35 16.4132 7.15 16.438 5.7C16.4628 4.25 17.4297 3.075 18.595 3.1C19.7851 3.075 20.7272 4.275 20.7024 5.725ZM18.0991 5C17.6281 5 17.2314 5.575 17.2314 6.3C17.2314 7.025 17.6033 7.625 18.0743 7.625C18.5454 7.625 18.9421 7.05 18.9421 6.325C18.9421 5.6 18.5702 5.025 18.0991 5Z" fill="#F3B329"/>
</g>
</g>
<defs>
<clipPath id="clip0_722_2977">
<rect width="21" height="25" fill="white"/>
</clipPath>
</defs>
</svg>
