<svg width="20" height="20" viewBox="0 0 20 20" fill="none" xmlns="http://www.w3.org/2000/svg">
<path d="M13.3079 12.5734L14.2338 11.6475C14.3785 11.5028 14.6302 11.6041 14.6302 11.8124V16.0197C14.6302 16.7865 14.0081 17.4086 13.2413 17.4086H3.05591C2.28911 17.4086 1.66699 16.7865 1.66699 16.0197V5.83429C1.66699 5.06749 2.28911 4.44537 3.05591 4.44537H10.9699C11.1753 4.44537 11.2795 4.69422 11.1348 4.84179L10.2088 5.76774C10.1654 5.81114 10.1076 5.83429 10.0439 5.83429H3.05591V16.0197H13.2413V12.7355C13.2413 12.6747 13.2645 12.6168 13.3079 12.5734ZM17.8392 6.73419L10.2407 14.3327L7.62488 14.6221C6.86676 14.706 6.22149 14.0665 6.3054 13.3026L6.59476 10.6868L14.1933 3.08828C14.8559 2.42565 15.9266 2.42565 16.5863 3.08828L17.8363 4.33831C18.499 5.00094 18.499 6.07446 17.8392 6.73419ZM14.9804 7.62831L13.2992 5.94714L7.92291 11.3263L7.71168 13.2158L9.60119 13.0046L14.9804 7.62831ZM16.8554 5.32213L15.6054 4.0721C15.4867 3.95346 15.2929 3.95346 15.1771 4.0721L14.283 4.96621L15.9642 6.64739L16.8583 5.75327C16.974 5.63174 16.974 5.44076 16.8554 5.32213Z" fill="#333333"/>
</svg>
