<svg width="20" height="20" viewBox="0 0 20 20" fill="none" xmlns="http://www.w3.org/2000/svg">
<path d="M13.125 9.73942V10.6509C13.125 10.8657 12.9492 11.0415 12.7344 11.0415H7.26562C7.05078 11.0415 6.875 10.8657 6.875 10.6509V9.73942C6.875 9.52458 7.05078 9.3488 7.26562 9.3488H12.7344C12.9492 9.3488 13.125 9.52458 13.125 9.73942ZM12.7344 12.0832H7.26562C7.05078 12.0832 6.875 12.259 6.875 12.4738V13.3853C6.875 13.6001 7.05078 13.7759 7.26562 13.7759H12.7344C12.9492 13.7759 13.125 13.6001 13.125 13.3853V12.4738C13.125 12.259 12.9492 12.0832 12.7344 12.0832ZM16.25 5.96012V16.7707C16.25 17.6333 15.5501 18.3332 14.6875 18.3332H5.3125C4.44987 18.3332 3.75 17.6333 3.75 16.7707V3.229C3.75 2.36637 4.44987 1.6665 5.3125 1.6665H11.9564C12.3698 1.6665 12.7669 1.83252 13.0599 2.12549L15.791 4.85661C16.084 5.14632 16.25 5.54671 16.25 5.96012ZM12.0833 3.35596V5.83317H14.5605L12.0833 3.35596ZM14.6875 16.7707V7.39567H11.3021C10.8691 7.39567 10.5208 7.04736 10.5208 6.61442V3.229H5.3125V16.7707H14.6875Z" fill="#333333"/>
</svg>
