<svg width="20" height="20" viewBox="0 0 20 20" fill="none" xmlns="http://www.w3.org/2000/svg">
<path d="M12.6885 7.44607C11.8253 7.44607 10.8108 8.01462 10.6771 8.8614C10.6183 9.23841 11.0635 9.4743 11.3434 9.22564L11.6643 8.9407C12.162 8.49749 13.2154 8.49749 13.713 8.9407L14.0339 9.22564C14.3189 9.47531 14.7584 9.23404 14.7003 8.8614C14.5662 8.01462 13.5517 7.44607 12.6885 7.44607ZM7.31215 9.4622C7.9059 9.4622 8.38742 8.98068 8.38742 8.38693C8.38742 7.79318 7.9059 7.31167 7.31215 7.31167C6.7184 7.31167 6.23689 7.79318 6.23689 8.38693C6.23689 8.98068 6.7184 9.4622 7.31215 9.4622ZM13.547 11.6342C12.6757 11.9131 11.3831 12.0731 10.0003 12.0731C8.6176 12.0731 7.32492 11.9135 6.45362 11.6342C6.11961 11.5291 5.80174 11.8147 5.85852 12.1497C6.12499 13.734 8.25503 14.8385 10.0003 14.8385C11.7456 14.8385 13.8757 13.734 14.1421 12.1497C14.1986 11.8174 13.8844 11.5287 13.547 11.6342ZM10.0003 1.6665C5.39784 1.6665 1.66699 5.39735 1.66699 9.99984C1.66699 14.6023 5.39784 18.3332 10.0003 18.3332C14.6028 18.3332 18.3337 14.6023 18.3337 9.99984C18.3337 5.39735 14.6028 1.6665 10.0003 1.6665ZM10.0003 16.7203C6.29468 16.7203 3.2799 13.7055 3.2799 9.99984C3.2799 6.29419 6.29468 3.27941 10.0003 3.27941C13.706 3.27941 16.7208 6.29419 16.7208 9.99984C16.7208 13.7055 13.706 16.7203 10.0003 16.7203Z" fill="#333333"/>
</svg>
