<svg width="20" height="20" viewBox="0 0 20 20" fill="none" xmlns="http://www.w3.org/2000/svg">
<path d="M18.103 10.5618L12.5472 16.1177C12.0511 16.6137 11.1913 16.2665 11.1913 15.5555V12.3807H6.6937C6.25386 12.3807 5.90001 12.0269 5.90001 11.587V8.41226C5.90001 7.97242 6.25386 7.61857 6.6937 7.61857H11.1913V4.44381C11.1913 3.7361 12.0478 3.38555 12.5472 3.88161L18.103 9.43744C18.4105 9.7483 18.4105 10.251 18.103 10.5618ZM8.01651 15.9523V14.6295C8.01651 14.4112 7.83793 14.2327 7.61967 14.2327H4.84175C4.25641 14.2327 3.7835 13.7597 3.7835 13.1744V6.82488C3.7835 6.23953 4.25641 5.76662 4.84175 5.76662H7.61967C7.83793 5.76662 8.01651 5.58804 8.01651 5.36978V4.04696C8.01651 3.8287 7.83793 3.65012 7.61967 3.65012H4.84175C3.08902 3.65012 1.66699 5.07215 1.66699 6.82488V13.1744C1.66699 14.9271 3.08902 16.3492 4.84175 16.3492H7.61967C7.83793 16.3492 8.01651 16.1706 8.01651 15.9523Z" fill="#333333"/>
</svg>
