<svg width="20" height="20" viewBox="0 0 20 20" fill="none" xmlns="http://www.w3.org/2000/svg">
<path d="M17.7282 2.46762L14.3428 1.68639C13.975 1.60175 13.5974 1.79381 13.4477 2.13885L11.8852 5.78461C11.7485 6.10361 11.8396 6.47795 12.1098 6.69605L14.0824 8.3106C12.9106 10.8073 10.8631 12.8841 8.31433 14.0787L6.69978 12.1061C6.47843 11.8359 6.10734 11.7448 5.78834 11.8815L2.14258 13.4439C1.79428 13.5969 1.60223 13.9745 1.68686 14.3424L2.4681 17.7277C2.54947 18.0793 2.86197 18.3332 3.2298 18.3332C11.5662 18.3332 18.3336 11.5788 18.3336 3.22932C18.3336 2.86475 18.083 2.549 17.7282 2.46762Z" fill="#8E3D57"/>
</svg>
