<svg width="20" height="20" viewBox="0 0 20 20" fill="none" xmlns="http://www.w3.org/2000/svg">
<path d="M17.7511 8.89068L15.8049 7.57258L16.2507 5.26183C16.3354 4.83223 16.1987 4.38961 15.8895 4.07717C15.577 3.76798 15.1344 3.63129 14.7113 3.71591L12.4038 4.16179L11.089 2.2123C10.5975 1.48653 9.39986 1.48653 8.90842 2.2123L7.59357 4.16179L5.28933 3.71591C4.85647 3.63454 4.41711 3.76798 4.10792 4.08042C3.79874 4.39286 3.66205 4.83223 3.74666 5.26183L4.19254 7.57258L2.24631 8.89068C1.88179 9.13803 1.66699 9.54485 1.66699 9.98422C1.66699 10.4236 1.88505 10.8304 2.24631 11.0745L4.19254 12.3926L3.74666 14.7033C3.66205 15.133 3.79874 15.5756 4.10792 15.8848C4.41711 16.1939 4.85322 16.3306 5.28933 16.246L7.59357 15.8001L8.90842 17.7496C9.15251 18.1141 9.56259 18.3322 9.9987 18.3322C10.4348 18.3322 10.8449 18.1141 11.089 17.7529L12.4038 15.8034L14.7113 16.2493C15.1474 16.3371 15.5835 16.1972 15.8927 15.888C16.2019 15.5788 16.3354 15.1362 16.254 14.7066L15.8081 12.3959L17.7543 11.0778C18.1156 10.8337 18.3337 10.4236 18.3337 9.98747C18.3304 9.54485 18.1156 9.13803 17.7511 8.89068ZM14.0767 11.6766L14.6495 14.6448L11.6878 14.072L9.9987 16.5747L8.30958 14.0687L5.35117 14.6415L5.92397 11.6733L3.42446 9.98096L5.92397 8.28858L5.35117 5.32041L8.31283 5.89322L9.9987 3.39371L11.6878 5.89647L14.6495 5.32367L14.0767 8.28858L16.5762 9.98096L14.0767 11.6766ZM9.9987 6.61573C8.13383 6.61573 6.61394 8.13562 6.61394 10.0005C6.61394 11.8654 8.13383 13.3852 9.9987 13.3852C11.8636 13.3852 13.3835 11.8654 13.3835 10.0005C13.3835 8.13562 11.8636 6.61573 9.9987 6.61573ZM9.9987 11.8231C8.99304 11.8231 8.17614 11.0062 8.17614 10.0005C8.17614 8.99483 8.99304 8.17793 9.9987 8.17793C11.0044 8.17793 11.8213 8.99483 11.8213 10.0005C11.8213 11.0062 11.0044 11.8231 9.9987 11.8231Z" fill="#333333"/>
</svg>
