<svg width="20" height="20" viewBox="0 0 20 20" fill="none" xmlns="http://www.w3.org/2000/svg">
<path d="M16.3331 4.39057L10.0825 1.78615C9.89213 1.70716 9.68801 1.6665 9.48188 1.6665C9.27575 1.6665 9.07164 1.70716 8.88124 1.78615L2.63063 4.39057C2.04789 4.63148 1.66699 5.20119 1.66699 5.83277C1.66699 12.295 5.39457 16.7616 8.87798 18.2135C9.26213 18.3731 9.69512 18.3731 10.0793 18.2135C12.8693 17.0513 17.2935 13.0372 17.2935 5.83277C17.2935 5.20119 16.9126 4.63148 16.3331 4.39057ZM9.48351 16.1951L9.48025 3.79155L15.2067 6.17785C15.0993 11.1067 12.5339 14.678 9.48351 16.1951Z" fill="#333333"/>
</svg>
